<mxfile
  host="Electron" 
  agent="Mozilla/5.0 (Macintosh; Intel Mac OS X 10_15_7) AppleWebKit/537.36 (KHTML, like Gecko) draw.io/25.0.2 Chrome/128.0.6613.186 Electron/32.2.5 Safari/537.36" 
  version="25.0.2"
  >
  <diagram
    name="-"
    >
    <mxGraphModel
      grid="1" 
      gridSize="10" 
      guides="1" 
      tooltips="1" 
      connect="1" 
      arrows="1" 
      fold="1" 
      page="1" 
      pageScale="1" 
      pageWidth="1" 
      pageHeight="1" 
      math="0" 
      shadow="0"
      >
      <root>
        <mxCell
          id="page"
          />
        <mxCell
          id="root" 
          parent="page"
          />
        <mxCell
          style="verticalAlign=top;aspect=fixed;align=center;spacingLeft=5;spacingRight=5;spacingBottom=5;strokeColor=none;" 
          id="shape_" 
          parent="root" 
          value=" " 
          vertex="1"
          >
          <mxGeometry
            as="geometry" 
            width="120" 
            height="120" 
            x="0" 
            y="0"
            />
          </mxCell>
        <mxCell
          style="rounded=1;whiteSpace=wrap;verticalAlign=top;align=center;shape=image;verticalLabelPosition=bottom;labelBackgroundColor=default;aspect=fixed;imageAspect=0;editableCssRules=.*;image=data:image/svg+xml,PHN2ZyB4bWxuczp4bGluaz0iaHR0cDovL3d3dy53My5vcmcvMTk5OS94bGluayIgeG1sbnM9Imh0dHA6Ly93d3cudzMub3JnLzIwMDAvc3ZnIiB2aWV3Qm94PSIyLjk4MDIzMjIzODc2OTUzMTJlLTggLTIuOTgwMjMyMjM4NzY5NTMxMmUtOCAyNCAyNCIgdmVyc2lvbj0iMS4xIiBpZD0iTGF5ZXJfMSIgd2lkdGg9IjI0IiBoZWlnaHQ9IjI0Ij4mI3hhOyAgPHN0eWxlIHR5cGU9InRleHQvY3NzIj4mI3hhOwkJLnN0MHtzdG9wLWNvbG9yOiMwMGNlYWM7fSYjeGE7CQkuc3Qxe3N0b3AtY29sb3I6IzA3ODM4Zjt9JiN4YTsJICA8L3N0eWxlPiYjeGE7ICA8ZGVmcz4mI3hhOyAgICA8bGluZWFyR3JhZGllbnQgaWQ9IkEiIHgxPSIwIiB5MT0iMCIgeDI9IjI0IiB5Mj0iMjQiIGdyYWRpZW50VW5pdHM9InVzZXJTcGFjZU9uVXNlIj4mI3hhOyAgICAgIDxzdG9wIGNsYXNzPSJzdDAiLz4mI3hhOyAgICAgIDxzdG9wIG9mZnNldD0iMSIgY2xhc3M9InN0MSIvPiYjeGE7ICAgIDwvbGluZWFyR3JhZGllbnQ+JiN4YTsgIDwvZGVmcz4mI3hhOyAgPHBhdGggZmlsbD0idXJsKCNBKSIgZD0iTTQuNzgsMS4xN2MwLS4zNC4xMS0uNjMuMzMtLjg0LjI1LS4yMi41NS0uMzMuODktLjMzaDE2Ljc4Yy4zNCwwLC42My4xMS44NC4zMy4yNS4yMi4zOC41LjM4Ljg0djE2LjgzYzAsLjM0LS4xMi42Mi0uMzguODQtLjIyLjIyLS41LjMzLS44NC4zM0g2Yy0uMzQsMC0uNjQtLjExLS44OS0uMzMtLjIyLS4yMi0uMzMtLjUtLjMzLS44NFYxLjE3Wk03LjE3LDE2Ljc4aDE0LjM5VjIuMzlINy4xN3YxNC4zOVpNMTMuNTUsNi44NGMtLjQxLS40MS0uNS0uODQtLjI4LTEuMzEuMTktLjUuNTYtLjc1LDEuMTItLjc1aDMuNjFjLjMxLDAsLjU4LjExLjguMzMuMjUuMjIuMzguNS4zOC44NHYzLjYxYzAsLjU2LS4yNS45NC0uNzUsMS4xMi0uNDcuMjItLjkxLjEyLTEuMzEtLjI4bC0uOTQtLjk0LTQuNTUsNC41NWMtLjI1LjI1LS41My4zOC0uODQuMzhzLS41OS0uMTItLjg0LS4zOC0uMzgtLjUzLS4zOC0uODQuMTItLjU5LjM4LS44NGw0LjU1LTQuNTUtLjk0LS45NFpNMi4zOSwyMS42MWgyMC4zOWMuMzQsMCwuNjMuMTEuODQuMzMuMjUuMjIuMzguNS4zOC44NHMtLjEyLjY0LS4zOC44OWMtLjIyLjIyLS41LjMzLS44NC4zM0gxLjIyYy0uMzQsMC0uNjQtLjExLS44OS0uMzMtLjIyLS4yNS0uMzMtLjU1LS4zMy0uODlWMS4yMmMwLS4zNC4xMS0uNjIuMzMtLjg0LjI1LS4yNS41NS0uMzguODktLjM4cy42My4xMi44NC4zOGMuMjIuMjIuMzMuNS4zMy44NHYyMC4zOVoiLz4mI3hhOzwvc3ZnPg;strokeColor=none;" 
          id="inspect_highlight_" 
          parent="shape_" 
          value=" " 
          vertex="1"
          >
          <mxGeometry
            as="geometry" 
            width="60" 
            height="60" 
            x="30" 
            y="30"
            />
          </mxCell>
        </root>
      </mxGraphModel>
    </diagram>
  </mxfile>